<mxfile host="Electron" modified="2024-06-13T01:23:13.076Z" agent="Mozilla/5.0 (Windows NT 10.0; Win64; x64) AppleWebKit/537.36 (KHTML, like Gecko) draw.io/23.0.2 Chrome/120.0.6099.109 Electron/28.1.0 Safari/537.36" etag="zTtn8RzNMF74k4oFaatM" version="23.0.2" type="device">
  <diagram id="C5RBs43oDa-KdzZeNtuy" name="Page-1">
    <mxGraphModel dx="1203" dy="715" grid="1" gridSize="10" guides="1" tooltips="1" connect="1" arrows="1" fold="1" page="1" pageScale="1" pageWidth="1654" pageHeight="2336" math="0" shadow="0">
      <root>
        <mxCell id="WIyWlLk6GJQsqaUBKTNV-0" />
        <mxCell id="WIyWlLk6GJQsqaUBKTNV-1" parent="WIyWlLk6GJQsqaUBKTNV-0" />
        <mxCell id="n99xbQfAfbgDP6SW3tYG-5" value="Cliente" style="swimlane;fontStyle=1;align=center;verticalAlign=top;childLayout=stackLayout;horizontal=1;startSize=26;horizontalStack=0;resizeParent=1;resizeParentMax=0;resizeLast=0;collapsible=1;marginBottom=0;whiteSpace=wrap;html=1;fillColor=#76608a;fontColor=#ffffff;strokeColor=#432D57;" parent="WIyWlLk6GJQsqaUBKTNV-1" vertex="1">
          <mxGeometry x="70" y="70" width="255" height="620" as="geometry" />
        </mxCell>
        <mxCell id="n99xbQfAfbgDP6SW3tYG-6" value="Integer identificacion" style="text;strokeColor=#3A5431;fillColor=#6d8764;align=left;verticalAlign=top;spacingLeft=4;spacingRight=4;overflow=hidden;rotatable=0;points=[[0,0.5],[1,0.5]];portConstraint=eastwest;whiteSpace=wrap;html=1;fontColor=#ffffff;" parent="n99xbQfAfbgDP6SW3tYG-5" vertex="1">
          <mxGeometry y="26" width="255" height="26" as="geometry" />
        </mxCell>
        <mxCell id="n99xbQfAfbgDP6SW3tYG-10" value="&lt;div style=&quot;text-align: justify;&quot;&gt;&lt;span style=&quot;background-color: initial;&quot;&gt;&amp;nbsp;String nombre&lt;/span&gt;&lt;/div&gt;" style="text;html=1;align=left;verticalAlign=middle;resizable=0;points=[];autosize=1;strokeColor=#3A5431;fillColor=#6d8764;fontColor=#ffffff;" parent="n99xbQfAfbgDP6SW3tYG-5" vertex="1">
          <mxGeometry y="52" width="255" height="30" as="geometry" />
        </mxCell>
        <mxCell id="n99xbQfAfbgDP6SW3tYG-11" value="&lt;div style=&quot;&quot;&gt;&lt;span style=&quot;background-color: initial;&quot;&gt;&amp;nbsp;String telefono&lt;/span&gt;&lt;/div&gt;" style="text;html=1;align=left;verticalAlign=middle;resizable=0;points=[];autosize=1;strokeColor=#3A5431;fillColor=#6d8764;fontColor=#ffffff;" parent="n99xbQfAfbgDP6SW3tYG-5" vertex="1">
          <mxGeometry y="82" width="255" height="30" as="geometry" />
        </mxCell>
        <mxCell id="n99xbQfAfbgDP6SW3tYG-12" value="&amp;nbsp;String email" style="text;html=1;align=left;verticalAlign=middle;resizable=0;points=[];autosize=1;strokeColor=#3A5431;fillColor=#6d8764;fontColor=#ffffff;" parent="n99xbQfAfbgDP6SW3tYG-5" vertex="1">
          <mxGeometry y="112" width="255" height="30" as="geometry" />
        </mxCell>
        <mxCell id="n99xbQfAfbgDP6SW3tYG-13" value="&amp;nbsp;String placa" style="text;html=1;align=left;verticalAlign=middle;resizable=0;points=[];autosize=1;strokeColor=#3A5431;fillColor=#6d8764;fontColor=#ffffff;" parent="n99xbQfAfbgDP6SW3tYG-5" vertex="1">
          <mxGeometry y="142" width="255" height="30" as="geometry" />
        </mxCell>
        <mxCell id="n99xbQfAfbgDP6SW3tYG-14" value="&amp;nbsp;int cantClientes" style="text;html=1;align=left;verticalAlign=middle;resizable=0;points=[];autosize=1;strokeColor=#3A5431;fillColor=#6d8764;fontColor=#ffffff;" parent="n99xbQfAfbgDP6SW3tYG-5" vertex="1">
          <mxGeometry y="172" width="255" height="30" as="geometry" />
        </mxCell>
        <mxCell id="n99xbQfAfbgDP6SW3tYG-15" value="&amp;nbsp;Cliente[ ] clientes" style="text;html=1;align=left;verticalAlign=middle;resizable=0;points=[];autosize=1;strokeColor=#3A5431;fillColor=#6d8764;fontColor=#ffffff;" parent="n99xbQfAfbgDP6SW3tYG-5" vertex="1">
          <mxGeometry y="202" width="255" height="30" as="geometry" />
        </mxCell>
        <mxCell id="n99xbQfAfbgDP6SW3tYG-7" value="" style="line;strokeWidth=1;fillColor=#e3c800;align=left;verticalAlign=middle;spacingTop=-1;spacingLeft=3;spacingRight=3;rotatable=0;labelPosition=right;points=[];portConstraint=eastwest;strokeColor=#B09500;fontColor=#000000;" parent="n99xbQfAfbgDP6SW3tYG-5" vertex="1">
          <mxGeometry y="232" width="255" height="18" as="geometry" />
        </mxCell>
        <mxCell id="n99xbQfAfbgDP6SW3tYG-8" value="Cliente(int identificacion, String nombre, String telefono, String email, String placa)&lt;br&gt;&lt;br&gt;" style="text;strokeColor=#B20000;fillColor=#e51400;align=left;verticalAlign=top;spacingLeft=4;spacingRight=4;overflow=hidden;rotatable=0;points=[[0,0.5],[1,0.5]];portConstraint=eastwest;whiteSpace=wrap;html=1;fontColor=#ffffff;" parent="n99xbQfAfbgDP6SW3tYG-5" vertex="1">
          <mxGeometry y="250" width="255" height="40" as="geometry" />
        </mxCell>
        <mxCell id="n99xbQfAfbgDP6SW3tYG-16" value="&amp;nbsp;String getPlaca()" style="text;html=1;align=left;verticalAlign=middle;resizable=0;points=[];autosize=1;strokeColor=#B20000;fillColor=#e51400;fontColor=#ffffff;" parent="n99xbQfAfbgDP6SW3tYG-5" vertex="1">
          <mxGeometry y="290" width="255" height="30" as="geometry" />
        </mxCell>
        <mxCell id="n99xbQfAfbgDP6SW3tYG-17" value="&amp;nbsp;void setPlaca(String placa)" style="text;html=1;align=left;verticalAlign=middle;resizable=0;points=[];autosize=1;strokeColor=#B20000;fillColor=#e51400;fontColor=#ffffff;" parent="n99xbQfAfbgDP6SW3tYG-5" vertex="1">
          <mxGeometry y="320" width="255" height="30" as="geometry" />
        </mxCell>
        <mxCell id="n99xbQfAfbgDP6SW3tYG-18" value="&amp;nbsp;Integer getIdentificacion()" style="text;html=1;align=left;verticalAlign=middle;resizable=0;points=[];autosize=1;strokeColor=#B20000;fillColor=#e51400;fontColor=#ffffff;" parent="n99xbQfAfbgDP6SW3tYG-5" vertex="1">
          <mxGeometry y="350" width="255" height="30" as="geometry" />
        </mxCell>
        <mxCell id="n99xbQfAfbgDP6SW3tYG-19" value="&amp;nbsp;void setIdentificacion(Integer identificacion)" style="text;html=1;align=left;verticalAlign=middle;resizable=0;points=[];autosize=1;strokeColor=#B20000;fillColor=#e51400;fontColor=#ffffff;" parent="n99xbQfAfbgDP6SW3tYG-5" vertex="1">
          <mxGeometry y="380" width="255" height="30" as="geometry" />
        </mxCell>
        <mxCell id="n99xbQfAfbgDP6SW3tYG-20" value="&amp;nbsp;String getNombre()" style="text;html=1;align=left;verticalAlign=middle;resizable=0;points=[];autosize=1;strokeColor=#B20000;fillColor=#e51400;fontColor=#ffffff;" parent="n99xbQfAfbgDP6SW3tYG-5" vertex="1">
          <mxGeometry y="410" width="255" height="30" as="geometry" />
        </mxCell>
        <mxCell id="n99xbQfAfbgDP6SW3tYG-21" value="&amp;nbsp;void setNombre(String nombre)" style="text;html=1;align=left;verticalAlign=middle;resizable=0;points=[];autosize=1;strokeColor=#B20000;fillColor=#e51400;fontColor=#ffffff;" parent="n99xbQfAfbgDP6SW3tYG-5" vertex="1">
          <mxGeometry y="440" width="255" height="30" as="geometry" />
        </mxCell>
        <mxCell id="n99xbQfAfbgDP6SW3tYG-22" value="&amp;nbsp;String getTelefono()" style="text;html=1;align=left;verticalAlign=middle;resizable=0;points=[];autosize=1;strokeColor=#B20000;fillColor=#e51400;fontColor=#ffffff;" parent="n99xbQfAfbgDP6SW3tYG-5" vertex="1">
          <mxGeometry y="470" width="255" height="30" as="geometry" />
        </mxCell>
        <mxCell id="n99xbQfAfbgDP6SW3tYG-23" value="&amp;nbsp;void setTelefono(String telefono)" style="text;html=1;align=left;verticalAlign=middle;resizable=0;points=[];autosize=1;strokeColor=#B20000;fillColor=#e51400;fontColor=#ffffff;" parent="n99xbQfAfbgDP6SW3tYG-5" vertex="1">
          <mxGeometry y="500" width="255" height="30" as="geometry" />
        </mxCell>
        <mxCell id="n99xbQfAfbgDP6SW3tYG-24" value="&amp;nbsp;String getEmail()" style="text;html=1;align=left;verticalAlign=middle;resizable=0;points=[];autosize=1;strokeColor=#B20000;fillColor=#e51400;fontColor=#ffffff;" parent="n99xbQfAfbgDP6SW3tYG-5" vertex="1">
          <mxGeometry y="530" width="255" height="30" as="geometry" />
        </mxCell>
        <mxCell id="n99xbQfAfbgDP6SW3tYG-25" value="&amp;nbsp;void setEmail(String email)" style="text;html=1;align=left;verticalAlign=middle;resizable=0;points=[];autosize=1;strokeColor=#B20000;fillColor=#e51400;fontColor=#ffffff;" parent="n99xbQfAfbgDP6SW3tYG-5" vertex="1">
          <mxGeometry y="560" width="255" height="30" as="geometry" />
        </mxCell>
        <mxCell id="n99xbQfAfbgDP6SW3tYG-26" value="&amp;nbsp;boolean existeCliente(int id)" style="text;html=1;align=left;verticalAlign=middle;resizable=0;points=[];autosize=1;strokeColor=#B20000;fillColor=#e51400;fontColor=#ffffff;" parent="n99xbQfAfbgDP6SW3tYG-5" vertex="1">
          <mxGeometry y="590" width="255" height="30" as="geometry" />
        </mxCell>
        <mxCell id="n99xbQfAfbgDP6SW3tYG-27" value="Mecanico" style="swimlane;fontStyle=1;align=center;verticalAlign=top;childLayout=stackLayout;horizontal=1;startSize=26;horizontalStack=0;resizeParent=1;resizeParentMax=0;resizeLast=0;collapsible=1;marginBottom=0;whiteSpace=wrap;html=1;fillColor=#76608a;fontColor=#ffffff;strokeColor=#432D57;" parent="WIyWlLk6GJQsqaUBKTNV-1" vertex="1">
          <mxGeometry x="460" y="70" width="260" height="530" as="geometry" />
        </mxCell>
        <mxCell id="n99xbQfAfbgDP6SW3tYG-28" value="Integer identificacion" style="text;strokeColor=#3A5431;fillColor=#6d8764;align=left;verticalAlign=top;spacingLeft=4;spacingRight=4;overflow=hidden;rotatable=0;points=[[0,0.5],[1,0.5]];portConstraint=eastwest;whiteSpace=wrap;html=1;fontColor=#ffffff;" parent="n99xbQfAfbgDP6SW3tYG-27" vertex="1">
          <mxGeometry y="26" width="260" height="26" as="geometry" />
        </mxCell>
        <mxCell id="n99xbQfAfbgDP6SW3tYG-29" value="&lt;div style=&quot;text-align: justify;&quot;&gt;&lt;span style=&quot;background-color: initial;&quot;&gt;&amp;nbsp;String nombre&lt;/span&gt;&lt;/div&gt;" style="text;html=1;align=left;verticalAlign=middle;resizable=0;points=[];autosize=1;strokeColor=#3A5431;fillColor=#6d8764;fontColor=#ffffff;" parent="n99xbQfAfbgDP6SW3tYG-27" vertex="1">
          <mxGeometry y="52" width="260" height="30" as="geometry" />
        </mxCell>
        <mxCell id="n99xbQfAfbgDP6SW3tYG-30" value="&lt;div style=&quot;&quot;&gt;&lt;span style=&quot;background-color: initial;&quot;&gt;&amp;nbsp;String puesto&lt;/span&gt;&lt;/div&gt;" style="text;html=1;align=left;verticalAlign=middle;resizable=0;points=[];autosize=1;strokeColor=#3A5431;fillColor=#6d8764;fontColor=#ffffff;" parent="n99xbQfAfbgDP6SW3tYG-27" vertex="1">
          <mxGeometry y="82" width="260" height="30" as="geometry" />
        </mxCell>
        <mxCell id="n99xbQfAfbgDP6SW3tYG-31" value="&amp;nbsp;String servicios" style="text;html=1;align=left;verticalAlign=middle;resizable=0;points=[];autosize=1;strokeColor=#3A5431;fillColor=#6d8764;fontColor=#ffffff;" parent="n99xbQfAfbgDP6SW3tYG-27" vertex="1">
          <mxGeometry y="112" width="260" height="30" as="geometry" />
        </mxCell>
        <mxCell id="n99xbQfAfbgDP6SW3tYG-33" value="&amp;nbsp;int cantMecanicos" style="text;html=1;align=left;verticalAlign=middle;resizable=0;points=[];autosize=1;strokeColor=#3A5431;fillColor=#6d8764;fontColor=#ffffff;" parent="n99xbQfAfbgDP6SW3tYG-27" vertex="1">
          <mxGeometry y="142" width="260" height="30" as="geometry" />
        </mxCell>
        <mxCell id="n99xbQfAfbgDP6SW3tYG-34" value="&amp;nbsp;Mecanico[ ] mecanicos" style="text;html=1;align=left;verticalAlign=middle;resizable=0;points=[];autosize=1;strokeColor=#3A5431;fillColor=#6d8764;fontColor=#ffffff;" parent="n99xbQfAfbgDP6SW3tYG-27" vertex="1">
          <mxGeometry y="172" width="260" height="30" as="geometry" />
        </mxCell>
        <mxCell id="n99xbQfAfbgDP6SW3tYG-35" value="" style="line;strokeWidth=1;fillColor=#e3c800;align=left;verticalAlign=middle;spacingTop=-1;spacingLeft=3;spacingRight=3;rotatable=0;labelPosition=right;points=[];portConstraint=eastwest;strokeColor=#B09500;fontColor=#000000;" parent="n99xbQfAfbgDP6SW3tYG-27" vertex="1">
          <mxGeometry y="202" width="260" height="18" as="geometry" />
        </mxCell>
        <mxCell id="n99xbQfAfbgDP6SW3tYG-36" value="Mecanico(Integer identificacion, String nombre, String puesto, Integer[ ] servicios)" style="text;strokeColor=#B20000;fillColor=#e51400;align=left;verticalAlign=top;spacingLeft=4;spacingRight=4;overflow=hidden;rotatable=0;points=[[0,0.5],[1,0.5]];portConstraint=eastwest;whiteSpace=wrap;html=1;fontColor=#ffffff;" parent="n99xbQfAfbgDP6SW3tYG-27" vertex="1">
          <mxGeometry y="220" width="260" height="40" as="geometry" />
        </mxCell>
        <mxCell id="n99xbQfAfbgDP6SW3tYG-37" value="&amp;nbsp;Integer getIdentificacion()" style="text;html=1;align=left;verticalAlign=middle;resizable=0;points=[];autosize=1;strokeColor=#B20000;fillColor=#e51400;fontColor=#ffffff;" parent="n99xbQfAfbgDP6SW3tYG-27" vertex="1">
          <mxGeometry y="260" width="260" height="30" as="geometry" />
        </mxCell>
        <mxCell id="n99xbQfAfbgDP6SW3tYG-38" value="&amp;nbsp;void setIdentificacion(Integer identificacion)" style="text;html=1;align=left;verticalAlign=middle;resizable=0;points=[];autosize=1;strokeColor=#B20000;fillColor=#e51400;fontColor=#ffffff;" parent="n99xbQfAfbgDP6SW3tYG-27" vertex="1">
          <mxGeometry y="290" width="260" height="30" as="geometry" />
        </mxCell>
        <mxCell id="n99xbQfAfbgDP6SW3tYG-39" value="&amp;nbsp;String getNombre()" style="text;html=1;align=left;verticalAlign=middle;resizable=0;points=[];autosize=1;strokeColor=#B20000;fillColor=#e51400;fontColor=#ffffff;" parent="n99xbQfAfbgDP6SW3tYG-27" vertex="1">
          <mxGeometry y="320" width="260" height="30" as="geometry" />
        </mxCell>
        <mxCell id="n99xbQfAfbgDP6SW3tYG-40" value="&amp;nbsp;void setNombre(String nombre)" style="text;html=1;align=left;verticalAlign=middle;resizable=0;points=[];autosize=1;strokeColor=#B20000;fillColor=#e51400;fontColor=#ffffff;" parent="n99xbQfAfbgDP6SW3tYG-27" vertex="1">
          <mxGeometry y="350" width="260" height="30" as="geometry" />
        </mxCell>
        <mxCell id="n99xbQfAfbgDP6SW3tYG-41" value="&amp;nbsp;String getPuesto()" style="text;html=1;align=left;verticalAlign=middle;resizable=0;points=[];autosize=1;strokeColor=#B20000;fillColor=#e51400;fontColor=#ffffff;" parent="n99xbQfAfbgDP6SW3tYG-27" vertex="1">
          <mxGeometry y="380" width="260" height="30" as="geometry" />
        </mxCell>
        <mxCell id="n99xbQfAfbgDP6SW3tYG-42" value="&amp;nbsp;void setPuesto(String puesto)" style="text;html=1;align=left;verticalAlign=middle;resizable=0;points=[];autosize=1;strokeColor=#B20000;fillColor=#e51400;fontColor=#ffffff;" parent="n99xbQfAfbgDP6SW3tYG-27" vertex="1">
          <mxGeometry y="410" width="260" height="30" as="geometry" />
        </mxCell>
        <mxCell id="n99xbQfAfbgDP6SW3tYG-43" value="&amp;nbsp;Integer[ ] getServicios()" style="text;html=1;align=left;verticalAlign=middle;resizable=0;points=[];autosize=1;strokeColor=#B20000;fillColor=#e51400;fontColor=#ffffff;" parent="n99xbQfAfbgDP6SW3tYG-27" vertex="1">
          <mxGeometry y="440" width="260" height="30" as="geometry" />
        </mxCell>
        <mxCell id="n99xbQfAfbgDP6SW3tYG-44" value="&amp;nbsp;void setServicios(Integer[ ] servicios)" style="text;html=1;align=left;verticalAlign=middle;resizable=0;points=[];autosize=1;strokeColor=#B20000;fillColor=#e51400;fontColor=#ffffff;" parent="n99xbQfAfbgDP6SW3tYG-27" vertex="1">
          <mxGeometry y="470" width="260" height="30" as="geometry" />
        </mxCell>
        <mxCell id="n99xbQfAfbgDP6SW3tYG-45" value="&amp;nbsp;boolean existeMecanico(int id)" style="text;html=1;align=left;verticalAlign=middle;resizable=0;points=[];autosize=1;strokeColor=#B20000;fillColor=#e51400;fontColor=#ffffff;" parent="n99xbQfAfbgDP6SW3tYG-27" vertex="1">
          <mxGeometry y="500" width="260" height="30" as="geometry" />
        </mxCell>
        <mxCell id="n99xbQfAfbgDP6SW3tYG-48" value="Servicios" style="swimlane;fontStyle=1;align=center;verticalAlign=top;childLayout=stackLayout;horizontal=1;startSize=26;horizontalStack=0;resizeParent=1;resizeParentMax=0;resizeLast=0;collapsible=1;marginBottom=0;whiteSpace=wrap;html=1;fillColor=#76608a;fontColor=#ffffff;strokeColor=#432D57;" parent="WIyWlLk6GJQsqaUBKTNV-1" vertex="1">
          <mxGeometry x="850" y="50" width="260" height="500" as="geometry" />
        </mxCell>
        <mxCell id="n99xbQfAfbgDP6SW3tYG-49" value="Integer identificacion" style="text;strokeColor=#3A5431;fillColor=#6d8764;align=left;verticalAlign=top;spacingLeft=4;spacingRight=4;overflow=hidden;rotatable=0;points=[[0,0.5],[1,0.5]];portConstraint=eastwest;whiteSpace=wrap;html=1;fontColor=#ffffff;" parent="n99xbQfAfbgDP6SW3tYG-48" vertex="1">
          <mxGeometry y="26" width="260" height="26" as="geometry" />
        </mxCell>
        <mxCell id="n99xbQfAfbgDP6SW3tYG-50" value="&lt;div style=&quot;text-align: justify;&quot;&gt;&lt;span style=&quot;background-color: initial;&quot;&gt;&amp;nbsp;String nombre&lt;/span&gt;&lt;/div&gt;" style="text;html=1;align=left;verticalAlign=middle;resizable=0;points=[];autosize=1;strokeColor=#3A5431;fillColor=#6d8764;fontColor=#ffffff;" parent="n99xbQfAfbgDP6SW3tYG-48" vertex="1">
          <mxGeometry y="52" width="260" height="30" as="geometry" />
        </mxCell>
        <mxCell id="n99xbQfAfbgDP6SW3tYG-51" value="&lt;div style=&quot;&quot;&gt;&lt;span style=&quot;background-color: initial;&quot;&gt;&amp;nbsp;String precio&lt;/span&gt;&lt;/div&gt;" style="text;html=1;align=left;verticalAlign=middle;resizable=0;points=[];autosize=1;strokeColor=#3A5431;fillColor=#6d8764;fontColor=#ffffff;" parent="n99xbQfAfbgDP6SW3tYG-48" vertex="1">
          <mxGeometry y="82" width="260" height="30" as="geometry" />
        </mxCell>
        <mxCell id="n99xbQfAfbgDP6SW3tYG-53" value="&amp;nbsp;int cantServicios" style="text;html=1;align=left;verticalAlign=middle;resizable=0;points=[];autosize=1;strokeColor=#3A5431;fillColor=#6d8764;fontColor=#ffffff;" parent="n99xbQfAfbgDP6SW3tYG-48" vertex="1">
          <mxGeometry y="112" width="260" height="30" as="geometry" />
        </mxCell>
        <mxCell id="n99xbQfAfbgDP6SW3tYG-54" value="&amp;nbsp;Servicio[ ] servicios" style="text;html=1;align=left;verticalAlign=middle;resizable=0;points=[];autosize=1;strokeColor=#3A5431;fillColor=#6d8764;fontColor=#ffffff;" parent="n99xbQfAfbgDP6SW3tYG-48" vertex="1">
          <mxGeometry y="142" width="260" height="30" as="geometry" />
        </mxCell>
        <mxCell id="n99xbQfAfbgDP6SW3tYG-55" value="" style="line;strokeWidth=1;fillColor=#e3c800;align=left;verticalAlign=middle;spacingTop=-1;spacingLeft=3;spacingRight=3;rotatable=0;labelPosition=right;points=[];portConstraint=eastwest;strokeColor=#B09500;fontColor=#000000;" parent="n99xbQfAfbgDP6SW3tYG-48" vertex="1">
          <mxGeometry y="172" width="260" height="18" as="geometry" />
        </mxCell>
        <mxCell id="n99xbQfAfbgDP6SW3tYG-56" value="Servicio(Integer identificacion, String nombre, Integer precio)" style="text;strokeColor=#B20000;fillColor=#e51400;align=left;verticalAlign=top;spacingLeft=4;spacingRight=4;overflow=hidden;rotatable=0;points=[[0,0.5],[1,0.5]];portConstraint=eastwest;whiteSpace=wrap;html=1;fontColor=#ffffff;" parent="n99xbQfAfbgDP6SW3tYG-48" vertex="1">
          <mxGeometry y="190" width="260" height="40" as="geometry" />
        </mxCell>
        <mxCell id="n99xbQfAfbgDP6SW3tYG-57" value="&amp;nbsp;Integer getIdentificacion()" style="text;html=1;align=left;verticalAlign=middle;resizable=0;points=[];autosize=1;strokeColor=#B20000;fillColor=#e51400;fontColor=#ffffff;" parent="n99xbQfAfbgDP6SW3tYG-48" vertex="1">
          <mxGeometry y="230" width="260" height="30" as="geometry" />
        </mxCell>
        <mxCell id="n99xbQfAfbgDP6SW3tYG-58" value="&amp;nbsp;void setIdentificacion(Integer identificacion)" style="text;html=1;align=left;verticalAlign=middle;resizable=0;points=[];autosize=1;strokeColor=#B20000;fillColor=#e51400;fontColor=#ffffff;" parent="n99xbQfAfbgDP6SW3tYG-48" vertex="1">
          <mxGeometry y="260" width="260" height="30" as="geometry" />
        </mxCell>
        <mxCell id="n99xbQfAfbgDP6SW3tYG-59" value="&amp;nbsp;String getNombre()" style="text;html=1;align=left;verticalAlign=middle;resizable=0;points=[];autosize=1;strokeColor=#B20000;fillColor=#e51400;fontColor=#ffffff;" parent="n99xbQfAfbgDP6SW3tYG-48" vertex="1">
          <mxGeometry y="290" width="260" height="30" as="geometry" />
        </mxCell>
        <mxCell id="n99xbQfAfbgDP6SW3tYG-60" value="&amp;nbsp;void setNombre(String nombre)" style="text;html=1;align=left;verticalAlign=middle;resizable=0;points=[];autosize=1;strokeColor=#B20000;fillColor=#e51400;fontColor=#ffffff;" parent="n99xbQfAfbgDP6SW3tYG-48" vertex="1">
          <mxGeometry y="320" width="260" height="30" as="geometry" />
        </mxCell>
        <mxCell id="n99xbQfAfbgDP6SW3tYG-61" value="&amp;nbsp;Integer getPrecio()" style="text;html=1;align=left;verticalAlign=middle;resizable=0;points=[];autosize=1;strokeColor=#B20000;fillColor=#e51400;fontColor=#ffffff;" parent="n99xbQfAfbgDP6SW3tYG-48" vertex="1">
          <mxGeometry y="350" width="260" height="30" as="geometry" />
        </mxCell>
        <mxCell id="n99xbQfAfbgDP6SW3tYG-62" value="&amp;nbsp;void setPrecio(Integer precio)" style="text;html=1;align=left;verticalAlign=middle;resizable=0;points=[];autosize=1;strokeColor=#B20000;fillColor=#e51400;fontColor=#ffffff;" parent="n99xbQfAfbgDP6SW3tYG-48" vertex="1">
          <mxGeometry y="380" width="260" height="30" as="geometry" />
        </mxCell>
        <mxCell id="n99xbQfAfbgDP6SW3tYG-63" value="&amp;nbsp;boolean existeServicio(int id)" style="text;html=1;align=left;verticalAlign=middle;resizable=0;points=[];autosize=1;strokeColor=#B20000;fillColor=#e51400;fontColor=#ffffff;" parent="n99xbQfAfbgDP6SW3tYG-48" vertex="1">
          <mxGeometry y="410" width="260" height="30" as="geometry" />
        </mxCell>
        <mxCell id="n99xbQfAfbgDP6SW3tYG-64" value="&amp;nbsp;void setServicios(Integer[ ] servicios)" style="text;html=1;align=left;verticalAlign=middle;resizable=0;points=[];autosize=1;strokeColor=#B20000;fillColor=#e51400;fontColor=#ffffff;" parent="n99xbQfAfbgDP6SW3tYG-48" vertex="1">
          <mxGeometry y="440" width="260" height="30" as="geometry" />
        </mxCell>
        <mxCell id="n99xbQfAfbgDP6SW3tYG-65" value="&amp;nbsp;boolean existeMecanico(int id)" style="text;html=1;align=left;verticalAlign=middle;resizable=0;points=[];autosize=1;strokeColor=#B20000;fillColor=#e51400;fontColor=#ffffff;" parent="n99xbQfAfbgDP6SW3tYG-48" vertex="1">
          <mxGeometry y="470" width="260" height="30" as="geometry" />
        </mxCell>
        <mxCell id="n99xbQfAfbgDP6SW3tYG-67" value="ServiciosValidadosGUI" style="swimlane;fontStyle=1;align=center;verticalAlign=top;childLayout=stackLayout;horizontal=1;startSize=26;horizontalStack=0;resizeParent=1;resizeParentMax=0;resizeLast=0;collapsible=1;marginBottom=0;whiteSpace=wrap;html=1;fillColor=#76608a;fontColor=#ffffff;strokeColor=#432D57;" parent="WIyWlLk6GJQsqaUBKTNV-1" vertex="1">
          <mxGeometry x="60" y="750" width="255" height="170" as="geometry" />
        </mxCell>
        <mxCell id="n99xbQfAfbgDP6SW3tYG-68" value="Mecanico mecanicoObj" style="text;strokeColor=#3A5431;fillColor=#6d8764;align=left;verticalAlign=top;spacingLeft=4;spacingRight=4;overflow=hidden;rotatable=0;points=[[0,0.5],[1,0.5]];portConstraint=eastwest;whiteSpace=wrap;html=1;fontColor=#ffffff;" parent="n99xbQfAfbgDP6SW3tYG-67" vertex="1">
          <mxGeometry y="26" width="255" height="26" as="geometry" />
        </mxCell>
        <mxCell id="n99xbQfAfbgDP6SW3tYG-75" value="" style="line;strokeWidth=1;fillColor=#e3c800;align=left;verticalAlign=middle;spacingTop=-1;spacingLeft=3;spacingRight=3;rotatable=0;labelPosition=right;points=[];portConstraint=eastwest;strokeColor=#B09500;fontColor=#000000;" parent="n99xbQfAfbgDP6SW3tYG-67" vertex="1">
          <mxGeometry y="52" width="255" height="18" as="geometry" />
        </mxCell>
        <mxCell id="n99xbQfAfbgDP6SW3tYG-76" value="ServiciosValidadosGUI()" style="text;strokeColor=#B20000;fillColor=#e51400;align=left;verticalAlign=top;spacingLeft=4;spacingRight=4;overflow=hidden;rotatable=0;points=[[0,0.5],[1,0.5]];portConstraint=eastwest;whiteSpace=wrap;html=1;fontColor=#ffffff;" parent="n99xbQfAfbgDP6SW3tYG-67" vertex="1">
          <mxGeometry y="70" width="255" height="40" as="geometry" />
        </mxCell>
        <mxCell id="n99xbQfAfbgDP6SW3tYG-77" value="&amp;nbsp;void encontrarMecanico(String id)" style="text;html=1;align=left;verticalAlign=middle;resizable=0;points=[];autosize=1;strokeColor=#B20000;fillColor=#e51400;fontColor=#ffffff;" parent="n99xbQfAfbgDP6SW3tYG-67" vertex="1">
          <mxGeometry y="110" width="255" height="30" as="geometry" />
        </mxCell>
        <mxCell id="n99xbQfAfbgDP6SW3tYG-78" value="void main(String args)" style="text;html=1;align=left;verticalAlign=middle;resizable=0;points=[];autosize=1;strokeColor=#B20000;fillColor=#e51400;fontColor=#ffffff;" parent="n99xbQfAfbgDP6SW3tYG-67" vertex="1">
          <mxGeometry y="140" width="255" height="30" as="geometry" />
        </mxCell>
        <mxCell id="n99xbQfAfbgDP6SW3tYG-88" value="accesoXML" style="swimlane;fontStyle=1;align=center;verticalAlign=top;childLayout=stackLayout;horizontal=1;startSize=26;horizontalStack=0;resizeParent=1;resizeParentMax=0;resizeLast=0;collapsible=1;marginBottom=0;whiteSpace=wrap;html=1;fillColor=#76608a;fontColor=#ffffff;strokeColor=#432D57;" parent="WIyWlLk6GJQsqaUBKTNV-1" vertex="1">
          <mxGeometry x="400" y="880" width="400" height="474" as="geometry" />
        </mxCell>
        <mxCell id="n99xbQfAfbgDP6SW3tYG-96" value="" style="line;strokeWidth=1;fillColor=#e3c800;align=left;verticalAlign=middle;spacingTop=-1;spacingLeft=3;spacingRight=3;rotatable=0;labelPosition=right;points=[];portConstraint=eastwest;strokeColor=#B09500;fontColor=#000000;" parent="n99xbQfAfbgDP6SW3tYG-88" vertex="1">
          <mxGeometry y="26" width="400" height="18" as="geometry" />
        </mxCell>
        <mxCell id="n99xbQfAfbgDP6SW3tYG-97" value="void agregarCliente(Cliente cliente)" style="text;strokeColor=#B20000;fillColor=#e51400;align=left;verticalAlign=top;spacingLeft=4;spacingRight=4;overflow=hidden;rotatable=0;points=[[0,0.5],[1,0.5]];portConstraint=eastwest;whiteSpace=wrap;html=1;fontColor=#ffffff;" parent="n99xbQfAfbgDP6SW3tYG-88" vertex="1">
          <mxGeometry y="44" width="400" height="40" as="geometry" />
        </mxCell>
        <mxCell id="n99xbQfAfbgDP6SW3tYG-98" value="&amp;nbsp;void modificarCliente(Cliente clienteModificado)" style="text;html=1;align=left;verticalAlign=middle;resizable=0;points=[];autosize=1;strokeColor=#B20000;fillColor=#e51400;fontColor=#ffffff;" parent="n99xbQfAfbgDP6SW3tYG-88" vertex="1">
          <mxGeometry y="84" width="400" height="30" as="geometry" />
        </mxCell>
        <mxCell id="n99xbQfAfbgDP6SW3tYG-99" value="&amp;nbsp;void leerClientes()" style="text;html=1;align=left;verticalAlign=middle;resizable=0;points=[];autosize=1;strokeColor=#B20000;fillColor=#e51400;fontColor=#ffffff;" parent="n99xbQfAfbgDP6SW3tYG-88" vertex="1">
          <mxGeometry y="114" width="400" height="30" as="geometry" />
        </mxCell>
        <mxCell id="n99xbQfAfbgDP6SW3tYG-100" value="&amp;nbsp;void leerMecanicos()" style="text;html=1;align=left;verticalAlign=middle;resizable=0;points=[];autosize=1;strokeColor=#B20000;fillColor=#e51400;fontColor=#ffffff;" parent="n99xbQfAfbgDP6SW3tYG-88" vertex="1">
          <mxGeometry y="144" width="400" height="30" as="geometry" />
        </mxCell>
        <mxCell id="n99xbQfAfbgDP6SW3tYG-101" value="&amp;nbsp;void agregarMecanico(Mecanico mecanico)" style="text;html=1;align=left;verticalAlign=middle;resizable=0;points=[];autosize=1;strokeColor=#B20000;fillColor=#e51400;fontColor=#ffffff;" parent="n99xbQfAfbgDP6SW3tYG-88" vertex="1">
          <mxGeometry y="174" width="400" height="30" as="geometry" />
        </mxCell>
        <mxCell id="n99xbQfAfbgDP6SW3tYG-102" value="&amp;nbsp;void modificarMecanico(Mecanico mecanicoModificado)" style="text;html=1;align=left;verticalAlign=middle;resizable=0;points=[];autosize=1;strokeColor=#B20000;fillColor=#e51400;fontColor=#ffffff;" parent="n99xbQfAfbgDP6SW3tYG-88" vertex="1">
          <mxGeometry y="204" width="400" height="30" as="geometry" />
        </mxCell>
        <mxCell id="n99xbQfAfbgDP6SW3tYG-103" value="&amp;nbsp;void agregarServicio(Servicio servicio)" style="text;html=1;align=left;verticalAlign=middle;resizable=0;points=[];autosize=1;strokeColor=#B20000;fillColor=#e51400;fontColor=#ffffff;" parent="n99xbQfAfbgDP6SW3tYG-88" vertex="1">
          <mxGeometry y="234" width="400" height="30" as="geometry" />
        </mxCell>
        <mxCell id="n99xbQfAfbgDP6SW3tYG-104" value="&amp;nbsp;void modificarServicio(Servicio servicioModificado)" style="text;html=1;align=left;verticalAlign=middle;resizable=0;points=[];autosize=1;strokeColor=#B20000;fillColor=#e51400;fontColor=#ffffff;" parent="n99xbQfAfbgDP6SW3tYG-88" vertex="1">
          <mxGeometry y="264" width="400" height="30" as="geometry" />
        </mxCell>
        <mxCell id="n99xbQfAfbgDP6SW3tYG-105" value="&amp;nbsp;void leerServicios()" style="text;html=1;align=left;verticalAlign=middle;resizable=0;points=[];autosize=1;strokeColor=#B20000;fillColor=#e51400;fontColor=#ffffff;" parent="n99xbQfAfbgDP6SW3tYG-88" vertex="1">
          <mxGeometry y="294" width="400" height="30" as="geometry" />
        </mxCell>
        <mxCell id="n99xbQfAfbgDP6SW3tYG-106" value="void agregarServiciosValidados(Mecanico mecanico, Integer servicios)" style="text;html=1;align=left;verticalAlign=middle;resizable=0;points=[];autosize=1;strokeColor=#B20000;fillColor=#e51400;fontColor=#ffffff;" parent="n99xbQfAfbgDP6SW3tYG-88" vertex="1">
          <mxGeometry y="324" width="400" height="30" as="geometry" />
        </mxCell>
        <mxCell id="QilJPILXahKRt7qTgyC0-88" value="&amp;nbsp;void leerSolicitudes()" style="text;html=1;align=left;verticalAlign=middle;resizable=0;points=[];autosize=1;strokeColor=#B20000;fillColor=#e51400;fontColor=#ffffff;" vertex="1" parent="n99xbQfAfbgDP6SW3tYG-88">
          <mxGeometry y="354" width="400" height="30" as="geometry" />
        </mxCell>
        <mxCell id="QilJPILXahKRt7qTgyC0-89" value="&amp;nbsp;void agregarSolicitud(Solicitud nuevaSolicitud)" style="text;html=1;align=left;verticalAlign=middle;resizable=0;points=[];autosize=1;strokeColor=#B20000;fillColor=#e51400;fontColor=#ffffff;" vertex="1" parent="n99xbQfAfbgDP6SW3tYG-88">
          <mxGeometry y="384" width="400" height="30" as="geometry" />
        </mxCell>
        <mxCell id="QilJPILXahKRt7qTgyC0-90" value="&amp;nbsp;HashMap&amp;lt;String, String&amp;gt; leerEstados()" style="text;html=1;align=left;verticalAlign=middle;resizable=0;points=[];autosize=1;strokeColor=#B20000;fillColor=#e51400;fontColor=#ffffff;" vertex="1" parent="n99xbQfAfbgDP6SW3tYG-88">
          <mxGeometry y="414" width="400" height="30" as="geometry" />
        </mxCell>
        <mxCell id="QilJPILXahKRt7qTgyC0-91" value="&amp;nbsp;void modificarSolicitud(Solicitud solicitudModificada)" style="text;html=1;align=left;verticalAlign=middle;resizable=0;points=[];autosize=1;strokeColor=#B20000;fillColor=#e51400;fontColor=#ffffff;" vertex="1" parent="n99xbQfAfbgDP6SW3tYG-88">
          <mxGeometry y="444" width="400" height="30" as="geometry" />
        </mxCell>
        <mxCell id="n99xbQfAfbgDP6SW3tYG-109" value="1 .. 1" style="endArrow=open;endSize=12;dashed=1;html=1;rounded=0;fontFamily=Helvetica;fontSize=12;fontColor=#ffffff;exitX=0.095;exitY=0;exitDx=0;exitDy=0;exitPerimeter=0;" parent="WIyWlLk6GJQsqaUBKTNV-1" source="n99xbQfAfbgDP6SW3tYG-88" edge="1">
          <mxGeometry width="160" relative="1" as="geometry">
            <mxPoint x="425" y="680" as="sourcePoint" />
            <mxPoint x="330" y="230" as="targetPoint" />
            <Array as="points" />
          </mxGeometry>
        </mxCell>
        <mxCell id="n99xbQfAfbgDP6SW3tYG-110" value="1..1" style="endArrow=open;html=1;endSize=12;startArrow=diamondThin;startSize=14;startFill=0;edgeStyle=orthogonalEdgeStyle;align=left;verticalAlign=bottom;rounded=0;fontFamily=Helvetica;fontSize=12;fontColor=#ffffff;exitX=1;exitY=0;exitDx=0;exitDy=0;" parent="WIyWlLk6GJQsqaUBKTNV-1" source="n99xbQfAfbgDP6SW3tYG-67" edge="1">
          <mxGeometry x="0.8095" relative="1" as="geometry">
            <mxPoint x="350" y="690" as="sourcePoint" />
            <mxPoint x="480" y="600" as="targetPoint" />
            <Array as="points">
              <mxPoint x="340" y="750" />
              <mxPoint x="340" y="676" />
              <mxPoint x="480" y="676" />
            </Array>
            <mxPoint as="offset" />
          </mxGeometry>
        </mxCell>
        <mxCell id="n99xbQfAfbgDP6SW3tYG-111" value="mecanicoObj" style="text;html=1;align=center;verticalAlign=middle;resizable=0;points=[];autosize=1;strokeColor=none;fillColor=none;fontSize=12;fontFamily=Helvetica;fontColor=#ffffff;" parent="WIyWlLk6GJQsqaUBKTNV-1" vertex="1">
          <mxGeometry x="300" y="690" width="90" height="30" as="geometry" />
        </mxCell>
        <mxCell id="n99xbQfAfbgDP6SW3tYG-112" value="1...1" style="endArrow=open;endSize=12;dashed=1;html=1;rounded=0;fontFamily=Helvetica;fontSize=12;fontColor=#ffffff;exitX=0.36;exitY=-0.006;exitDx=0;exitDy=0;exitPerimeter=0;entryX=0.427;entryY=1.2;entryDx=0;entryDy=0;entryPerimeter=0;" parent="WIyWlLk6GJQsqaUBKTNV-1" source="n99xbQfAfbgDP6SW3tYG-88" target="n99xbQfAfbgDP6SW3tYG-45" edge="1">
          <mxGeometry width="160" relative="1" as="geometry">
            <mxPoint x="530" y="680" as="sourcePoint" />
            <mxPoint x="690" y="680" as="targetPoint" />
          </mxGeometry>
        </mxCell>
        <mxCell id="n99xbQfAfbgDP6SW3tYG-113" value="1....1" style="endArrow=open;endSize=12;dashed=1;html=1;rounded=0;fontFamily=Helvetica;fontSize=12;fontColor=#ffffff;entryX=0;entryY=1;entryDx=0;entryDy=0;" parent="WIyWlLk6GJQsqaUBKTNV-1" source="n99xbQfAfbgDP6SW3tYG-88" target="n99xbQfAfbgDP6SW3tYG-48" edge="1">
          <mxGeometry width="160" relative="1" as="geometry">
            <mxPoint x="530" y="680" as="sourcePoint" />
            <mxPoint x="690" y="680" as="targetPoint" />
          </mxGeometry>
        </mxCell>
        <mxCell id="n99xbQfAfbgDP6SW3tYG-114" value="1...1" style="endArrow=open;endSize=12;dashed=1;html=1;rounded=0;fontFamily=Helvetica;fontSize=12;fontColor=#ffffff;exitX=0.004;exitY=0.2;exitDx=0;exitDy=0;exitPerimeter=0;entryX=1;entryY=0.933;entryDx=0;entryDy=0;entryPerimeter=0;" parent="WIyWlLk6GJQsqaUBKTNV-1" source="n99xbQfAfbgDP6SW3tYG-61" target="n99xbQfAfbgDP6SW3tYG-34" edge="1">
          <mxGeometry width="160" relative="1" as="geometry">
            <mxPoint x="530" y="480" as="sourcePoint" />
            <mxPoint x="690" y="480" as="targetPoint" />
          </mxGeometry>
        </mxCell>
        <mxCell id="QilJPILXahKRt7qTgyC0-1" value="Solicitud" style="swimlane;fontStyle=1;align=center;verticalAlign=top;childLayout=stackLayout;horizontal=1;startSize=26;horizontalStack=0;resizeParent=1;resizeParentMax=0;resizeLast=0;collapsible=1;marginBottom=0;whiteSpace=wrap;html=1;fillColor=#76608a;fontColor=#ffffff;strokeColor=#432D57;" vertex="1" parent="WIyWlLk6GJQsqaUBKTNV-1">
          <mxGeometry x="1000" y="780" width="430" height="1290" as="geometry" />
        </mxCell>
        <mxCell id="QilJPILXahKRt7qTgyC0-2" value="Integer identificacion" style="text;strokeColor=#3A5431;fillColor=#6d8764;align=left;verticalAlign=top;spacingLeft=4;spacingRight=4;overflow=hidden;rotatable=0;points=[[0,0.5],[1,0.5]];portConstraint=eastwest;whiteSpace=wrap;html=1;fontColor=#ffffff;" vertex="1" parent="QilJPILXahKRt7qTgyC0-1">
          <mxGeometry y="26" width="430" height="26" as="geometry" />
        </mxCell>
        <mxCell id="QilJPILXahKRt7qTgyC0-6" value="&amp;nbsp;String placa" style="text;html=1;align=left;verticalAlign=middle;resizable=0;points=[];autosize=1;strokeColor=#3A5431;fillColor=#6d8764;fontColor=#ffffff;" vertex="1" parent="QilJPILXahKRt7qTgyC0-1">
          <mxGeometry y="52" width="430" height="30" as="geometry" />
        </mxCell>
        <mxCell id="QilJPILXahKRt7qTgyC0-22" value="&amp;nbsp;Servicio servicio" style="text;html=1;align=left;verticalAlign=middle;resizable=0;points=[];autosize=1;strokeColor=#3A5431;fillColor=#6d8764;fontColor=#ffffff;" vertex="1" parent="QilJPILXahKRt7qTgyC0-1">
          <mxGeometry y="82" width="430" height="30" as="geometry" />
        </mxCell>
        <mxCell id="QilJPILXahKRt7qTgyC0-23" value="&amp;nbsp;String tipoServicio" style="text;html=1;align=left;verticalAlign=middle;resizable=0;points=[];autosize=1;strokeColor=#3A5431;fillColor=#6d8764;fontColor=#ffffff;" vertex="1" parent="QilJPILXahKRt7qTgyC0-1">
          <mxGeometry y="112" width="430" height="30" as="geometry" />
        </mxCell>
        <mxCell id="QilJPILXahKRt7qTgyC0-8" value="&amp;nbsp;Cliente cliente" style="text;html=1;align=left;verticalAlign=middle;resizable=0;points=[];autosize=1;strokeColor=#3A5431;fillColor=#6d8764;fontColor=#ffffff;" vertex="1" parent="QilJPILXahKRt7qTgyC0-1">
          <mxGeometry y="142" width="430" height="30" as="geometry" />
        </mxCell>
        <mxCell id="QilJPILXahKRt7qTgyC0-3" value="&lt;div style=&quot;text-align: justify;&quot;&gt;&lt;span style=&quot;background-color: initial;&quot;&gt;&amp;nbsp;String observaciones&lt;/span&gt;&lt;/div&gt;" style="text;html=1;align=left;verticalAlign=middle;resizable=0;points=[];autosize=1;strokeColor=#3A5431;fillColor=#6d8764;fontColor=#ffffff;" vertex="1" parent="QilJPILXahKRt7qTgyC0-1">
          <mxGeometry y="172" width="430" height="30" as="geometry" />
        </mxCell>
        <mxCell id="QilJPILXahKRt7qTgyC0-24" value="&amp;nbsp;Mecanico mecanico" style="text;html=1;align=left;verticalAlign=middle;resizable=0;points=[];autosize=1;strokeColor=#3A5431;fillColor=#6d8764;fontColor=#ffffff;" vertex="1" parent="QilJPILXahKRt7qTgyC0-1">
          <mxGeometry y="202" width="430" height="30" as="geometry" />
        </mxCell>
        <mxCell id="QilJPILXahKRt7qTgyC0-4" value="&lt;div style=&quot;&quot;&gt;&lt;span style=&quot;background-color: initial;&quot;&gt;&amp;nbsp;String estado&lt;/span&gt;&lt;/div&gt;" style="text;html=1;align=left;verticalAlign=middle;resizable=0;points=[];autosize=1;strokeColor=#3A5431;fillColor=#6d8764;fontColor=#ffffff;" vertex="1" parent="QilJPILXahKRt7qTgyC0-1">
          <mxGeometry y="232" width="430" height="30" as="geometry" />
        </mxCell>
        <mxCell id="QilJPILXahKRt7qTgyC0-5" value="&amp;nbsp;Servicio[ ] servicios" style="text;html=1;align=left;verticalAlign=middle;resizable=0;points=[];autosize=1;strokeColor=#3A5431;fillColor=#6d8764;fontColor=#ffffff;" vertex="1" parent="QilJPILXahKRt7qTgyC0-1">
          <mxGeometry y="262" width="430" height="30" as="geometry" />
        </mxCell>
        <mxCell id="QilJPILXahKRt7qTgyC0-7" value="&amp;nbsp;int cantSolicitud" style="text;html=1;align=left;verticalAlign=middle;resizable=0;points=[];autosize=1;strokeColor=#3A5431;fillColor=#6d8764;fontColor=#ffffff;" vertex="1" parent="QilJPILXahKRt7qTgyC0-1">
          <mxGeometry y="292" width="430" height="30" as="geometry" />
        </mxCell>
        <mxCell id="QilJPILXahKRt7qTgyC0-25" value="&amp;nbsp;Solicitud[ ] solicitudes" style="text;html=1;align=left;verticalAlign=middle;resizable=0;points=[];autosize=1;strokeColor=#3A5431;fillColor=#6d8764;fontColor=#ffffff;" vertex="1" parent="QilJPILXahKRt7qTgyC0-1">
          <mxGeometry y="322" width="430" height="30" as="geometry" />
        </mxCell>
        <mxCell id="QilJPILXahKRt7qTgyC0-9" value="" style="line;strokeWidth=1;fillColor=#e3c800;align=left;verticalAlign=middle;spacingTop=-1;spacingLeft=3;spacingRight=3;rotatable=0;labelPosition=right;points=[];portConstraint=eastwest;strokeColor=#B09500;fontColor=#000000;" vertex="1" parent="QilJPILXahKRt7qTgyC0-1">
          <mxGeometry y="352" width="430" height="18" as="geometry" />
        </mxCell>
        <mxCell id="QilJPILXahKRt7qTgyC0-10" value="Solicitud(Integer identificacion, String placa, Servicio servicio, Cliente cliente, Mecanico mecanico, Servicio[ ] servicios, String estado, String observaciones)" style="text;strokeColor=#B20000;fillColor=#e51400;align=left;verticalAlign=top;spacingLeft=4;spacingRight=4;overflow=hidden;rotatable=0;points=[[0,0.5],[1,0.5]];portConstraint=eastwest;whiteSpace=wrap;html=1;fontColor=#ffffff;" vertex="1" parent="QilJPILXahKRt7qTgyC0-1">
          <mxGeometry y="370" width="430" height="60" as="geometry" />
        </mxCell>
        <mxCell id="QilJPILXahKRt7qTgyC0-13" value="&amp;nbsp;Integer getIdentificacion()" style="text;html=1;align=left;verticalAlign=middle;resizable=0;points=[];autosize=1;strokeColor=#B20000;fillColor=#e51400;fontColor=#ffffff;" vertex="1" parent="QilJPILXahKRt7qTgyC0-1">
          <mxGeometry y="430" width="430" height="30" as="geometry" />
        </mxCell>
        <mxCell id="QilJPILXahKRt7qTgyC0-14" value="&amp;nbsp;void setIdentificacion(Integer identificacion)" style="text;html=1;align=left;verticalAlign=middle;resizable=0;points=[];autosize=1;strokeColor=#B20000;fillColor=#e51400;fontColor=#ffffff;" vertex="1" parent="QilJPILXahKRt7qTgyC0-1">
          <mxGeometry y="460" width="430" height="30" as="geometry" />
        </mxCell>
        <mxCell id="QilJPILXahKRt7qTgyC0-11" value="&amp;nbsp;String getPlaca()" style="text;html=1;align=left;verticalAlign=middle;resizable=0;points=[];autosize=1;strokeColor=#B20000;fillColor=#e51400;fontColor=#ffffff;" vertex="1" parent="QilJPILXahKRt7qTgyC0-1">
          <mxGeometry y="490" width="430" height="30" as="geometry" />
        </mxCell>
        <mxCell id="QilJPILXahKRt7qTgyC0-12" value="&amp;nbsp;void setPlaca(String placa)" style="text;html=1;align=left;verticalAlign=middle;resizable=0;points=[];autosize=1;strokeColor=#B20000;fillColor=#e51400;fontColor=#ffffff;" vertex="1" parent="QilJPILXahKRt7qTgyC0-1">
          <mxGeometry y="520" width="430" height="30" as="geometry" />
        </mxCell>
        <mxCell id="QilJPILXahKRt7qTgyC0-15" value="&amp;nbsp;Servicio getServicio()" style="text;html=1;align=left;verticalAlign=middle;resizable=0;points=[];autosize=1;strokeColor=#B20000;fillColor=#e51400;fontColor=#ffffff;" vertex="1" parent="QilJPILXahKRt7qTgyC0-1">
          <mxGeometry y="550" width="430" height="30" as="geometry" />
        </mxCell>
        <mxCell id="QilJPILXahKRt7qTgyC0-16" value="&amp;nbsp;void setServicio(Servicio servicio)" style="text;html=1;align=left;verticalAlign=middle;resizable=0;points=[];autosize=1;strokeColor=#B20000;fillColor=#e51400;fontColor=#ffffff;" vertex="1" parent="QilJPILXahKRt7qTgyC0-1">
          <mxGeometry y="580" width="430" height="30" as="geometry" />
        </mxCell>
        <mxCell id="QilJPILXahKRt7qTgyC0-17" value="&amp;nbsp;String getTipoServicio()" style="text;html=1;align=left;verticalAlign=middle;resizable=0;points=[];autosize=1;strokeColor=#B20000;fillColor=#e51400;fontColor=#ffffff;" vertex="1" parent="QilJPILXahKRt7qTgyC0-1">
          <mxGeometry y="610" width="430" height="30" as="geometry" />
        </mxCell>
        <mxCell id="QilJPILXahKRt7qTgyC0-18" value="&amp;nbsp;void setTipoServicio(String tipoServicio)" style="text;html=1;align=left;verticalAlign=middle;resizable=0;points=[];autosize=1;strokeColor=#B20000;fillColor=#e51400;fontColor=#ffffff;" vertex="1" parent="QilJPILXahKRt7qTgyC0-1">
          <mxGeometry y="640" width="430" height="30" as="geometry" />
        </mxCell>
        <mxCell id="QilJPILXahKRt7qTgyC0-19" value="&amp;nbsp;Cliente getCliente()" style="text;html=1;align=left;verticalAlign=middle;resizable=0;points=[];autosize=1;strokeColor=#B20000;fillColor=#e51400;fontColor=#ffffff;" vertex="1" parent="QilJPILXahKRt7qTgyC0-1">
          <mxGeometry y="670" width="430" height="30" as="geometry" />
        </mxCell>
        <mxCell id="QilJPILXahKRt7qTgyC0-20" value="&amp;nbsp;void setCliente(Cliente cliente)" style="text;html=1;align=left;verticalAlign=middle;resizable=0;points=[];autosize=1;strokeColor=#B20000;fillColor=#e51400;fontColor=#ffffff;" vertex="1" parent="QilJPILXahKRt7qTgyC0-1">
          <mxGeometry y="700" width="430" height="30" as="geometry" />
        </mxCell>
        <mxCell id="QilJPILXahKRt7qTgyC0-21" value="&amp;nbsp;String getObservaciones()" style="text;html=1;align=left;verticalAlign=middle;resizable=0;points=[];autosize=1;strokeColor=#B20000;fillColor=#e51400;fontColor=#ffffff;" vertex="1" parent="QilJPILXahKRt7qTgyC0-1">
          <mxGeometry y="730" width="430" height="30" as="geometry" />
        </mxCell>
        <mxCell id="QilJPILXahKRt7qTgyC0-26" value="&amp;nbsp;void setObservaciones(String observaciones)" style="text;html=1;align=left;verticalAlign=middle;resizable=0;points=[];autosize=1;strokeColor=#B20000;fillColor=#e51400;fontColor=#ffffff;" vertex="1" parent="QilJPILXahKRt7qTgyC0-1">
          <mxGeometry y="760" width="430" height="30" as="geometry" />
        </mxCell>
        <mxCell id="QilJPILXahKRt7qTgyC0-27" value="&amp;nbsp;Mecanico getMecanico()" style="text;html=1;align=left;verticalAlign=middle;resizable=0;points=[];autosize=1;strokeColor=#B20000;fillColor=#e51400;fontColor=#ffffff;" vertex="1" parent="QilJPILXahKRt7qTgyC0-1">
          <mxGeometry y="790" width="430" height="30" as="geometry" />
        </mxCell>
        <mxCell id="QilJPILXahKRt7qTgyC0-28" value="&amp;nbsp;void setMecanico(Mecanico mecanico)" style="text;html=1;align=left;verticalAlign=middle;resizable=0;points=[];autosize=1;strokeColor=#B20000;fillColor=#e51400;fontColor=#ffffff;" vertex="1" parent="QilJPILXahKRt7qTgyC0-1">
          <mxGeometry y="820" width="430" height="30" as="geometry" />
        </mxCell>
        <mxCell id="QilJPILXahKRt7qTgyC0-29" value="&amp;nbsp;String getEstado()" style="text;html=1;align=left;verticalAlign=middle;resizable=0;points=[];autosize=1;strokeColor=#B20000;fillColor=#e51400;fontColor=#ffffff;" vertex="1" parent="QilJPILXahKRt7qTgyC0-1">
          <mxGeometry y="850" width="430" height="30" as="geometry" />
        </mxCell>
        <mxCell id="QilJPILXahKRt7qTgyC0-30" value="&amp;nbsp;void setEstado(String estado)" style="text;html=1;align=left;verticalAlign=middle;resizable=0;points=[];autosize=1;strokeColor=#B20000;fillColor=#e51400;fontColor=#ffffff;" vertex="1" parent="QilJPILXahKRt7qTgyC0-1">
          <mxGeometry y="880" width="430" height="30" as="geometry" />
        </mxCell>
        <mxCell id="QilJPILXahKRt7qTgyC0-31" value="&amp;nbsp;Servicio[] getServicios()" style="text;html=1;align=left;verticalAlign=middle;resizable=0;points=[];autosize=1;strokeColor=#B20000;fillColor=#e51400;fontColor=#ffffff;" vertex="1" parent="QilJPILXahKRt7qTgyC0-1">
          <mxGeometry y="910" width="430" height="30" as="geometry" />
        </mxCell>
        <mxCell id="QilJPILXahKRt7qTgyC0-32" value="&amp;nbsp;void setServicios(Servicio[] servicios)" style="text;html=1;align=left;verticalAlign=middle;resizable=0;points=[];autosize=1;strokeColor=#B20000;fillColor=#e51400;fontColor=#ffffff;" vertex="1" parent="QilJPILXahKRt7qTgyC0-1">
          <mxGeometry y="940" width="430" height="30" as="geometry" />
        </mxCell>
        <mxCell id="QilJPILXahKRt7qTgyC0-33" value="&amp;nbsp;int getCantSolicitud()" style="text;html=1;align=left;verticalAlign=middle;resizable=0;points=[];autosize=1;strokeColor=#B20000;fillColor=#e51400;fontColor=#ffffff;" vertex="1" parent="QilJPILXahKRt7qTgyC0-1">
          <mxGeometry y="970" width="430" height="30" as="geometry" />
        </mxCell>
        <mxCell id="QilJPILXahKRt7qTgyC0-34" value="&amp;nbsp;void setCantSolicitud(int cantSolicitud)" style="text;html=1;align=left;verticalAlign=middle;resizable=0;points=[];autosize=1;strokeColor=#B20000;fillColor=#e51400;fontColor=#ffffff;" vertex="1" parent="QilJPILXahKRt7qTgyC0-1">
          <mxGeometry y="1000" width="430" height="30" as="geometry" />
        </mxCell>
        <mxCell id="QilJPILXahKRt7qTgyC0-35" value="&amp;nbsp;Solicitud[] getSolicitudes()" style="text;html=1;align=left;verticalAlign=middle;resizable=0;points=[];autosize=1;strokeColor=#B20000;fillColor=#e51400;fontColor=#ffffff;" vertex="1" parent="QilJPILXahKRt7qTgyC0-1">
          <mxGeometry y="1030" width="430" height="30" as="geometry" />
        </mxCell>
        <mxCell id="QilJPILXahKRt7qTgyC0-71" value="&amp;nbsp;void setSolicitudes(Solicitud[] solicitudes)" style="text;html=1;align=left;verticalAlign=middle;resizable=0;points=[];autosize=1;strokeColor=#B20000;fillColor=#e51400;fontColor=#ffffff;" vertex="1" parent="QilJPILXahKRt7qTgyC0-1">
          <mxGeometry y="1060" width="430" height="30" as="geometry" />
        </mxCell>
        <mxCell id="QilJPILXahKRt7qTgyC0-72" value="&amp;nbsp;Servicio obtenerServicioPorId(Integer servicioId)" style="text;html=1;align=left;verticalAlign=middle;resizable=0;points=[];autosize=1;strokeColor=#B20000;fillColor=#e51400;fontColor=#ffffff;" vertex="1" parent="QilJPILXahKRt7qTgyC0-1">
          <mxGeometry y="1090" width="430" height="30" as="geometry" />
        </mxCell>
        <mxCell id="QilJPILXahKRt7qTgyC0-73" value="&amp;nbsp;Cliente obtenerClientePorId(Integer clienteId)" style="text;html=1;align=left;verticalAlign=middle;resizable=0;points=[];autosize=1;strokeColor=#B20000;fillColor=#e51400;fontColor=#ffffff;" vertex="1" parent="QilJPILXahKRt7qTgyC0-1">
          <mxGeometry y="1120" width="430" height="30" as="geometry" />
        </mxCell>
        <mxCell id="QilJPILXahKRt7qTgyC0-74" value="&amp;nbsp;void crear(String placa, Integer servicioId, Integer clienteId,&lt;br&gt;&amp;nbsp;String observaciones)" style="text;html=1;align=left;verticalAlign=middle;resizable=0;points=[];autosize=1;strokeColor=#B20000;fillColor=#e51400;fontColor=#ffffff;" vertex="1" parent="QilJPILXahKRt7qTgyC0-1">
          <mxGeometry y="1150" width="430" height="40" as="geometry" />
        </mxCell>
        <mxCell id="QilJPILXahKRt7qTgyC0-75" value="&amp;nbsp;Integer generarIdUnico()" style="text;html=1;align=left;verticalAlign=middle;resizable=0;points=[];autosize=1;strokeColor=#B20000;fillColor=#e51400;fontColor=#ffffff;" vertex="1" parent="QilJPILXahKRt7qTgyC0-1">
          <mxGeometry y="1190" width="430" height="30" as="geometry" />
        </mxCell>
        <mxCell id="QilJPILXahKRt7qTgyC0-76" value="&amp;nbsp;void atender(Integer id, String placa, Servicio servicio, Mecanico mecanico,&lt;br&gt;&amp;nbsp;String estado, String observaciones, Servicio[] otrosServicios)" style="text;html=1;align=left;verticalAlign=middle;resizable=0;points=[];autosize=1;strokeColor=#B20000;fillColor=#e51400;fontColor=#ffffff;" vertex="1" parent="QilJPILXahKRt7qTgyC0-1">
          <mxGeometry y="1220" width="430" height="40" as="geometry" />
        </mxCell>
        <mxCell id="QilJPILXahKRt7qTgyC0-77" value="&amp;nbsp;String obtenerIdEstadoPorNombre(String nombreEstado)" style="text;html=1;align=left;verticalAlign=middle;resizable=0;points=[];autosize=1;strokeColor=#B20000;fillColor=#e51400;fontColor=#ffffff;" vertex="1" parent="QilJPILXahKRt7qTgyC0-1">
          <mxGeometry y="1260" width="430" height="30" as="geometry" />
        </mxCell>
        <mxCell id="QilJPILXahKRt7qTgyC0-87" value="1.......1" style="endArrow=open;endSize=12;dashed=1;html=1;rounded=0;entryX=-0.005;entryY=0.133;entryDx=0;entryDy=0;entryPerimeter=0;" edge="1" parent="QilJPILXahKRt7qTgyC0-1" target="QilJPILXahKRt7qTgyC0-14">
          <mxGeometry x="-0.024" y="17" width="160" relative="1" as="geometry">
            <mxPoint x="-200" y="370" as="sourcePoint" />
            <mxPoint x="-190" y="366" as="targetPoint" />
            <mxPoint as="offset" />
          </mxGeometry>
        </mxCell>
        <mxCell id="QilJPILXahKRt7qTgyC0-80" value="1...1" style="endArrow=open;endSize=12;dashed=1;html=1;rounded=0;" edge="1" parent="WIyWlLk6GJQsqaUBKTNV-1" target="QilJPILXahKRt7qTgyC0-18">
          <mxGeometry y="20" width="160" relative="1" as="geometry">
            <mxPoint x="1420" y="1370" as="sourcePoint" />
            <mxPoint x="1430" y="1440" as="targetPoint" />
            <Array as="points">
              <mxPoint x="1520" y="1370" />
              <mxPoint x="1550" y="1370" />
              <mxPoint x="1550" y="1440" />
            </Array>
            <mxPoint as="offset" />
          </mxGeometry>
        </mxCell>
        <mxCell id="QilJPILXahKRt7qTgyC0-81" value="1.....1" style="endArrow=open;html=1;endSize=12;startArrow=diamondThin;startSize=14;startFill=0;edgeStyle=orthogonalEdgeStyle;align=left;verticalAlign=bottom;rounded=0;exitX=0.577;exitY=0.001;exitDx=0;exitDy=0;exitPerimeter=0;" edge="1" parent="WIyWlLk6GJQsqaUBKTNV-1" source="QilJPILXahKRt7qTgyC0-1" target="n99xbQfAfbgDP6SW3tYG-65">
          <mxGeometry x="-0.5923" relative="1" as="geometry">
            <mxPoint x="1120" y="460" as="sourcePoint" />
            <mxPoint x="1280" y="460" as="targetPoint" />
            <mxPoint as="offset" />
          </mxGeometry>
        </mxCell>
        <mxCell id="QilJPILXahKRt7qTgyC0-82" value="1.....1" style="endArrow=open;html=1;endSize=12;startArrow=diamondThin;startSize=14;startFill=0;edgeStyle=orthogonalEdgeStyle;align=left;verticalAlign=bottom;rounded=0;exitX=-0.008;exitY=0.659;exitDx=0;exitDy=0;exitPerimeter=0;entryX=1.004;entryY=0.17;entryDx=0;entryDy=0;entryPerimeter=0;" edge="1" parent="WIyWlLk6GJQsqaUBKTNV-1" source="QilJPILXahKRt7qTgyC0-22" target="n99xbQfAfbgDP6SW3tYG-45">
          <mxGeometry x="-0.5923" relative="1" as="geometry">
            <mxPoint x="1248" y="681" as="sourcePoint" />
            <mxPoint x="960" y="580" as="targetPoint" />
            <mxPoint as="offset" />
          </mxGeometry>
        </mxCell>
        <mxCell id="QilJPILXahKRt7qTgyC0-83" value="1....1" style="endArrow=open;endSize=12;dashed=1;html=1;rounded=0;exitX=0.137;exitY=-0.002;exitDx=0;exitDy=0;exitPerimeter=0;entryX=0.773;entryY=1.022;entryDx=0;entryDy=0;entryPerimeter=0;" edge="1" parent="WIyWlLk6GJQsqaUBKTNV-1" source="QilJPILXahKRt7qTgyC0-1" target="n99xbQfAfbgDP6SW3tYG-65">
          <mxGeometry x="-0.3586" y="-1" width="160" relative="1" as="geometry">
            <mxPoint x="1030" y="690" as="sourcePoint" />
            <mxPoint x="1190" y="690" as="targetPoint" />
            <mxPoint as="offset" />
          </mxGeometry>
        </mxCell>
        <mxCell id="QilJPILXahKRt7qTgyC0-84" value="1.....1" style="endArrow=open;endSize=12;dashed=1;html=1;rounded=0;exitX=0;exitY=0.5;exitDx=0;exitDy=0;entryX=1;entryY=1;entryDx=0;entryDy=0;entryPerimeter=0;" edge="1" parent="WIyWlLk6GJQsqaUBKTNV-1" source="QilJPILXahKRt7qTgyC0-2" target="n99xbQfAfbgDP6SW3tYG-42">
          <mxGeometry x="-0.3239" y="-2" width="160" relative="1" as="geometry">
            <mxPoint x="1030" y="690" as="sourcePoint" />
            <mxPoint x="1190" y="690" as="targetPoint" />
            <mxPoint as="offset" />
          </mxGeometry>
        </mxCell>
        <mxCell id="QilJPILXahKRt7qTgyC0-85" value="1.....1" style="endArrow=open;html=1;endSize=12;startArrow=diamondThin;startSize=14;startFill=0;edgeStyle=orthogonalEdgeStyle;align=left;verticalAlign=bottom;rounded=0;exitX=0.005;exitY=0.363;exitDx=0;exitDy=0;exitPerimeter=0;entryX=1.002;entryY=0.911;entryDx=0;entryDy=0;entryPerimeter=0;" edge="1" parent="WIyWlLk6GJQsqaUBKTNV-1" source="QilJPILXahKRt7qTgyC0-6" target="n99xbQfAfbgDP6SW3tYG-24">
          <mxGeometry x="-0.7872" y="4" relative="1" as="geometry">
            <mxPoint x="850" y="690" as="sourcePoint" />
            <mxPoint x="1010" y="690" as="targetPoint" />
            <mxPoint as="offset" />
          </mxGeometry>
        </mxCell>
        <mxCell id="QilJPILXahKRt7qTgyC0-86" value="1..........1" style="endArrow=open;endSize=12;dashed=1;html=1;rounded=0;exitX=0.02;exitY=-0.001;exitDx=0;exitDy=0;exitPerimeter=0;entryX=1.006;entryY=0.059;entryDx=0;entryDy=0;entryPerimeter=0;" edge="1" parent="WIyWlLk6GJQsqaUBKTNV-1" source="QilJPILXahKRt7qTgyC0-1" target="n99xbQfAfbgDP6SW3tYG-26">
          <mxGeometry x="-0.141" y="-4" width="160" relative="1" as="geometry">
            <mxPoint x="810" y="800" as="sourcePoint" />
            <mxPoint x="970" y="800" as="targetPoint" />
            <mxPoint as="offset" />
          </mxGeometry>
        </mxCell>
        <mxCell id="QilJPILXahKRt7qTgyC0-92" value="AtenderSolicitudGUI" style="swimlane;fontStyle=1;align=center;verticalAlign=top;childLayout=stackLayout;horizontal=1;startSize=26;horizontalStack=0;resizeParent=1;resizeParentMax=0;resizeLast=0;collapsible=1;marginBottom=0;whiteSpace=wrap;html=1;fillColor=#76608a;fontColor=#ffffff;strokeColor=#432D57;" vertex="1" parent="WIyWlLk6GJQsqaUBKTNV-1">
          <mxGeometry x="1280" y="30" width="380" height="474" as="geometry" />
        </mxCell>
        <mxCell id="QilJPILXahKRt7qTgyC0-98" value="" style="line;strokeWidth=1;fillColor=#e3c800;align=left;verticalAlign=middle;spacingTop=-1;spacingLeft=3;spacingRight=3;rotatable=0;labelPosition=right;points=[];portConstraint=eastwest;strokeColor=#B09500;fontColor=#000000;" vertex="1" parent="QilJPILXahKRt7qTgyC0-92">
          <mxGeometry y="26" width="380" height="18" as="geometry" />
        </mxCell>
        <mxCell id="QilJPILXahKRt7qTgyC0-99" value="AtenderSolicitudGUI()" style="text;strokeColor=#B20000;fillColor=#e51400;align=left;verticalAlign=top;spacingLeft=4;spacingRight=4;overflow=hidden;rotatable=0;points=[[0,0.5],[1,0.5]];portConstraint=eastwest;whiteSpace=wrap;html=1;fontColor=#ffffff;" vertex="1" parent="QilJPILXahKRt7qTgyC0-92">
          <mxGeometry y="44" width="380" height="40" as="geometry" />
        </mxCell>
        <mxCell id="QilJPILXahKRt7qTgyC0-100" value="&amp;nbsp;void definirModeloTablaOtrosServicios()" style="text;html=1;align=left;verticalAlign=middle;resizable=0;points=[];autosize=1;strokeColor=#B20000;fillColor=#e51400;fontColor=#ffffff;" vertex="1" parent="QilJPILXahKRt7qTgyC0-92">
          <mxGeometry y="84" width="380" height="30" as="geometry" />
        </mxCell>
        <mxCell id="QilJPILXahKRt7qTgyC0-101" value="&amp;nbsp;void actualizarTablaOtrosServicios(Solicitud solicitud)" style="text;html=1;align=left;verticalAlign=middle;resizable=0;points=[];autosize=1;strokeColor=#B20000;fillColor=#e51400;fontColor=#ffffff;" vertex="1" parent="QilJPILXahKRt7qTgyC0-92">
          <mxGeometry y="114" width="380" height="30" as="geometry" />
        </mxCell>
        <mxCell id="QilJPILXahKRt7qTgyC0-102" value="&amp;nbsp;void llenarComboBoxSolicitud()" style="text;html=1;align=left;verticalAlign=middle;resizable=0;points=[];autosize=1;strokeColor=#B20000;fillColor=#e51400;fontColor=#ffffff;" vertex="1" parent="QilJPILXahKRt7qTgyC0-92">
          <mxGeometry y="144" width="380" height="30" as="geometry" />
        </mxCell>
        <mxCell id="QilJPILXahKRt7qTgyC0-103" value="&amp;nbsp;void llenarComboBoxServicio()" style="text;html=1;align=left;verticalAlign=middle;resizable=0;points=[];autosize=1;strokeColor=#B20000;fillColor=#e51400;fontColor=#ffffff;" vertex="1" parent="QilJPILXahKRt7qTgyC0-92">
          <mxGeometry y="174" width="380" height="30" as="geometry" />
        </mxCell>
        <mxCell id="QilJPILXahKRt7qTgyC0-104" value="&amp;nbsp;void llenarComboBoxMecanico()" style="text;html=1;align=left;verticalAlign=middle;resizable=0;points=[];autosize=1;strokeColor=#B20000;fillColor=#e51400;fontColor=#ffffff;" vertex="1" parent="QilJPILXahKRt7qTgyC0-92">
          <mxGeometry y="204" width="380" height="30" as="geometry" />
        </mxCell>
        <mxCell id="QilJPILXahKRt7qTgyC0-105" value="&amp;nbsp;void llenarComboBoxEstado()" style="text;html=1;align=left;verticalAlign=middle;resizable=0;points=[];autosize=1;strokeColor=#B20000;fillColor=#e51400;fontColor=#ffffff;" vertex="1" parent="QilJPILXahKRt7qTgyC0-92">
          <mxGeometry y="234" width="380" height="30" as="geometry" />
        </mxCell>
        <mxCell id="QilJPILXahKRt7qTgyC0-106" value="&amp;nbsp;Solicitud buscarObjSolicitud(Integer solicitudID)" style="text;html=1;align=left;verticalAlign=middle;resizable=0;points=[];autosize=1;strokeColor=#B20000;fillColor=#e51400;fontColor=#ffffff;" vertex="1" parent="QilJPILXahKRt7qTgyC0-92">
          <mxGeometry y="264" width="380" height="30" as="geometry" />
        </mxCell>
        <mxCell id="QilJPILXahKRt7qTgyC0-107" value="&amp;nbsp;void limpiarCampos()" style="text;html=1;align=left;verticalAlign=middle;resizable=0;points=[];autosize=1;strokeColor=#B20000;fillColor=#e51400;fontColor=#ffffff;" vertex="1" parent="QilJPILXahKRt7qTgyC0-92">
          <mxGeometry y="294" width="380" height="30" as="geometry" />
        </mxCell>
        <mxCell id="QilJPILXahKRt7qTgyC0-108" value="&amp;nbsp;String obtenerNombreEstado(String estadoID)" style="text;html=1;align=left;verticalAlign=middle;resizable=0;points=[];autosize=1;strokeColor=#B20000;fillColor=#e51400;fontColor=#ffffff;" vertex="1" parent="QilJPILXahKRt7qTgyC0-92">
          <mxGeometry y="324" width="380" height="30" as="geometry" />
        </mxCell>
        <mxCell id="QilJPILXahKRt7qTgyC0-109" value="&amp;nbsp;Servicio obtenerServicioSeleccionado(String nombreServicio)" style="text;html=1;align=left;verticalAlign=middle;resizable=0;points=[];autosize=1;strokeColor=#B20000;fillColor=#e51400;fontColor=#ffffff;" vertex="1" parent="QilJPILXahKRt7qTgyC0-92">
          <mxGeometry y="354" width="380" height="30" as="geometry" />
        </mxCell>
        <mxCell id="QilJPILXahKRt7qTgyC0-110" value="&amp;nbsp;Mecanico obtenerMecanicoSeleccionado(String nombreMecanico)" style="text;html=1;align=left;verticalAlign=middle;resizable=0;points=[];autosize=1;strokeColor=#B20000;fillColor=#e51400;fontColor=#ffffff;" vertex="1" parent="QilJPILXahKRt7qTgyC0-92">
          <mxGeometry y="384" width="380" height="30" as="geometry" />
        </mxCell>
        <mxCell id="QilJPILXahKRt7qTgyC0-111" value="&amp;nbsp;Servicio[] obtenerOtrosServiciosSeleccionados()" style="text;html=1;align=left;verticalAlign=middle;resizable=0;points=[];autosize=1;strokeColor=#B20000;fillColor=#e51400;fontColor=#ffffff;" vertex="1" parent="QilJPILXahKRt7qTgyC0-92">
          <mxGeometry y="414" width="380" height="30" as="geometry" />
        </mxCell>
        <mxCell id="QilJPILXahKRt7qTgyC0-112" value="&amp;nbsp;void main(String args)" style="text;html=1;align=left;verticalAlign=middle;resizable=0;points=[];autosize=1;strokeColor=#B20000;fillColor=#e51400;fontColor=#ffffff;" vertex="1" parent="QilJPILXahKRt7qTgyC0-92">
          <mxGeometry y="444" width="380" height="30" as="geometry" />
        </mxCell>
        <mxCell id="QilJPILXahKRt7qTgyC0-113" value="1.....1" style="endArrow=open;endSize=12;dashed=1;html=1;rounded=0;exitX=0.002;exitY=0.408;exitDx=0;exitDy=0;exitPerimeter=0;entryX=0.979;entryY=-0.125;entryDx=0;entryDy=0;entryPerimeter=0;" edge="1" parent="WIyWlLk6GJQsqaUBKTNV-1" source="QilJPILXahKRt7qTgyC0-103" target="n99xbQfAfbgDP6SW3tYG-56">
          <mxGeometry x="0.0305" y="-6" width="160" relative="1" as="geometry">
            <mxPoint x="1030" y="270" as="sourcePoint" />
            <mxPoint x="1190" y="270" as="targetPoint" />
            <mxPoint as="offset" />
          </mxGeometry>
        </mxCell>
        <mxCell id="QilJPILXahKRt7qTgyC0-114" value="1.........1" style="endArrow=open;endSize=12;dashed=1;html=1;rounded=0;exitX=0;exitY=0;exitDx=0;exitDy=0;entryX=1;entryY=0;entryDx=0;entryDy=0;" edge="1" parent="WIyWlLk6GJQsqaUBKTNV-1" source="QilJPILXahKRt7qTgyC0-92" target="n99xbQfAfbgDP6SW3tYG-27">
          <mxGeometry x="-0.7535" y="12" width="160" relative="1" as="geometry">
            <mxPoint x="1270" y="30" as="sourcePoint" />
            <mxPoint x="660" y="30" as="targetPoint" />
            <Array as="points">
              <mxPoint x="980" y="20" />
            </Array>
            <mxPoint as="offset" />
          </mxGeometry>
        </mxCell>
        <mxCell id="QilJPILXahKRt7qTgyC0-116" value="1......1" style="endArrow=open;endSize=12;dashed=1;html=1;rounded=0;exitX=0.25;exitY=1;exitDx=0;exitDy=0;entryX=0.833;entryY=0;entryDx=0;entryDy=0;entryPerimeter=0;" edge="1" parent="WIyWlLk6GJQsqaUBKTNV-1" source="QilJPILXahKRt7qTgyC0-92" target="QilJPILXahKRt7qTgyC0-1">
          <mxGeometry x="0.1285" y="4" width="160" relative="1" as="geometry">
            <mxPoint x="1030" y="650" as="sourcePoint" />
            <mxPoint x="1190" y="650" as="targetPoint" />
            <mxPoint x="1" as="offset" />
          </mxGeometry>
        </mxCell>
      </root>
    </mxGraphModel>
  </diagram>
</mxfile>
